<svg xmlns="http://www.w3.org/2000/svg" width="24" height="24" viewBox="0 0 24 24">
    <g fill="none" fill-opacity=".45" fill-rule="evenodd">
        <g fill="#FFF">
            <g>
                <g>
                    <g>
                        <g>
                            <path d="M12 2c-2.715 0-3.056.012-4.122.06-1.065.05-1.792.218-2.428.465-.657.255-1.215.597-1.771 1.153-.556.556-.898 1.114-1.154 1.771-.248.636-.417 1.363-.465 2.427C2.013 8.943 2 9.284 2 12c0 2.716.012 3.056.06 4.122.05 1.065.218 1.792.465 2.427.256.658.597 1.216 1.153 1.772s1.114.899 1.771 1.154c.636.247 1.363.416 2.428.465 1.066.048 1.407.06 4.123.06s3.056-.012 4.122-.06c1.065-.05 1.792-.218 2.429-.465.657-.255 1.214-.598 1.77-1.154.556-.556.898-1.114 1.154-1.771.246-.636.415-1.363.465-2.428.047-1.066.06-1.406.06-4.122s-.013-3.057-.06-4.123c-.05-1.065-.22-1.792-.465-2.427-.256-.658-.598-1.216-1.154-1.772-.556-.556-1.113-.898-1.771-1.153-.638-.247-1.365-.416-2.43-.465-1.066-.048-1.405-.06-4.122-.06H12zm-.896 1.802H12c2.67 0 2.986.01 4.04.058.976.044 1.505.207 1.857.344.467.181.8.398 1.15.748.35.35.566.683.748 1.15.137.352.3.881.344 1.856.048 1.054.059 1.371.059 4.04 0 2.668-.01 2.985-.059 4.04-.044.974-.207 1.503-.344 1.856-.181.466-.398.799-.748 1.148-.35.35-.683.567-1.15.748-.352.138-.881.3-1.856.345-1.054.048-1.371.058-4.041.058-2.67 0-2.987-.01-4.04-.058-.976-.045-1.505-.208-1.858-.345-.467-.181-.8-.398-1.15-.748-.35-.35-.567-.682-.748-1.15-.137-.351-.3-.88-.345-1.856-.047-1.054-.057-1.37-.057-4.04 0-2.671.01-2.986.057-4.04.045-.975.208-1.505.345-1.857.181-.467.398-.8.748-1.15.35-.35.683-.567 1.15-.748.353-.138.882-.3 1.857-.345.923-.042 1.28-.054 3.144-.056v.002zm6.235 1.66c-.663 0-1.2.537-1.2 1.2 0 .663.537 1.2 1.2 1.2.662 0 1.2-.537 1.2-1.2 0-.662-.538-1.2-1.2-1.2zM12 6.866c-2.836 0-5.136 2.299-5.136 5.135s2.3 5.134 5.136 5.134c2.836 0 5.135-2.298 5.135-5.134 0-2.836-2.3-5.135-5.135-5.135zm0 1.802c1.84 0 3.333 1.492 3.333 3.333 0 1.84-1.492 3.333-3.333 3.333-1.841 0-3.333-1.492-3.333-3.333 0-1.841 1.492-3.333 3.333-3.333z" transform="translate(-1358 -23) translate(0 12) translate(1358 11)"/>
                        </g>
                    </g>
                </g>
            </g>
        </g>
    </g>
</svg>
