<svg xmlns="http://www.w3.org/2000/svg" width="24" height="14" viewBox="0 0 24 14">
    <g fill="none" fill-opacity=".45" fill-rule="evenodd">
        <g fill="#FFF">
            <g>
                <g>
                    <g>
                        <g>
                            <path d="M20.655 13.902c.796.801 1.637 1.555 2.35 2.437.316.392.615.796.843 1.251.324.647.03 1.358-.532 1.397l-3.496-.002c-.902.077-1.621-.297-2.226-.932-.484-.509-.933-1.05-1.398-1.575-.19-.215-.39-.417-.63-.577-.476-.319-.89-.221-1.164.292-.277.522-.34 1.1-.368 1.682-.037.848-.286 1.071-1.113 1.11-1.767.086-3.445-.19-5.003-1.109-1.374-.81-2.44-1.954-3.366-3.249-1.806-2.52-3.188-5.292-4.43-8.14-.28-.642-.076-.986.611-.998 1.14-.023 2.281-.022 3.423-.002.464.007.77.281.95.733.617 1.564 1.372 3.052 2.32 4.431.252.367.51.735.876.993.405.286.714.191.905-.274.12-.295.174-.613.201-.93.09-1.087.102-2.173-.056-3.257-.097-.677-.467-1.115-1.122-1.243-.334-.065-.284-.193-.123-.39.281-.339.546-.55 1.073-.55h3.951c.622.127.76.415.845 1.06l.004 4.524c-.007.25.12.991.557 1.157.35.117.58-.17.79-.4.946-1.034 1.62-2.257 2.224-3.524.268-.557.498-1.135.721-1.713.165-.43.425-.64.893-.63l3.803.003c.113 0 .227.001.336.02.641.113.817.397.619 1.042-.312 1.012-.919 1.856-1.512 2.703-.634.905-1.313 1.778-1.941 2.688-.578.831-.532 1.25.185 1.972" transform="translate(-1395 -28) translate(0 12) translate(1395 11)"/>
                        </g>
                    </g>
                </g>
            </g>
        </g>
    </g>
</svg>
