<svg xmlns="http://www.w3.org/2000/svg" width="24" height="24" viewBox="0 0 24 24">
    <g fill="none" fill-rule="evenodd">
        <g fill="#74D755" fill-rule="nonzero">
            <g>
                <g>
                    <g>
                        <g>
                            <g>
                                <path d="M0 20l1.413-5.136C.54 13.361.083 11.657.083 9.91.087 4.446 4.554 0 10.043 0c2.663 0 5.164 1.033 7.044 2.907C18.966 4.78 20.001 7.27 20 9.918c-.003 5.465-4.47 9.91-9.958 9.91-1.666 0-3.308-.416-4.763-1.206L0 20zm5.524-3.172c1.403.829 2.743 1.325 4.515 1.326 4.561 0 8.277-3.695 8.28-8.237.001-4.552-3.697-8.242-8.274-8.244-4.565 0-8.278 3.695-8.28 8.237 0 1.854.545 3.242 1.462 4.695l-.836 3.04 3.133-.817zm9.534-4.554c-.062-.103-.228-.165-.477-.289-.249-.124-1.472-.723-1.7-.806-.228-.082-.394-.124-.56.124-.167.248-.644.806-.789.971-.145.165-.29.186-.539.062-.249-.124-1.05-.385-2.001-1.23-.74-.656-1.24-1.467-1.384-1.715-.145-.248-.015-.382.109-.505.112-.111.248-.29.373-.434.127-.144.168-.247.251-.413.083-.165.042-.31-.02-.434-.063-.123-.56-1.343-.768-1.838-.202-.483-.407-.418-.56-.425l-.477-.009c-.166 0-.435.062-.663.31-.228.249-.871.847-.871 2.066 0 1.22.892 2.397 1.016 2.562.124.165 1.754 2.666 4.25 3.739.593.255 1.057.408 1.418.522.596.188 1.139.161 1.568.098.478-.07 1.472-.6 1.68-1.178.207-.579.207-1.075.144-1.178z" transform="translate(-1220 -23) translate(0 12) translate(1220 11) translate(2 2)"/>
                            </g>
                        </g>
                    </g>
                </g>
            </g>
        </g>
    </g>
</svg>
